<svg width="22" height="22" viewBox="0 0 22 22" fill="none" xmlns="http://www.w3.org/2000/svg">
<g clip-path="url(#clip0_26_68)">
<path fill-rule="evenodd" clip-rule="evenodd" d="M21.77 11.2671C21.77 17.1702 16.9402 22 11.0371 22C5.13402 22 0.304214 17.1702 0.304214 11.2671C0.304214 5.36399 5.13402 0.53418 11.0371 0.53418C16.9402 0.53418 21.77 5.36399 21.77 11.2671Z" fill="url(#paint0_linear_26_68)"/>
<path fill-rule="evenodd" clip-rule="evenodd" d="M21.77 11.2671C21.77 17.1702 16.9402 22 11.0371 22C5.13402 22 0.304214 17.1702 0.304214 11.2671C0.304214 5.36399 5.13402 0.53418 11.0371 0.53418C16.9402 0.53418 21.77 5.36399 21.77 11.2671Z" fill="url(#paint1_radial_26_68)"/>
<path fill-rule="evenodd" clip-rule="evenodd" d="M21.77 11.2671C21.77 17.1702 16.9402 22 11.0371 22C5.13402 22 0.304214 17.1702 0.304214 11.2671C0.304214 5.36399 5.13402 0.53418 11.0371 0.53418C16.9402 0.53418 21.77 5.36399 21.77 11.2671Z" fill="url(#paint2_radial_26_68)"/>
<path fill-rule="evenodd" clip-rule="evenodd" d="M21.77 11.2671C21.77 17.1702 16.9402 22 11.0371 22C5.13402 22 0.304214 17.1702 0.304214 11.2671C0.304214 5.36399 5.13402 0.53418 11.0371 0.53418C16.9402 0.53418 21.77 5.36399 21.77 11.2671Z" fill="url(#paint3_radial_26_68)"/>
<path fill-rule="evenodd" clip-rule="evenodd" d="M21.77 11.2671C21.77 17.1702 16.9402 22 11.0371 22C5.13402 22 0.304214 17.1702 0.304214 11.2671C0.304214 5.36399 5.13402 0.53418 11.0371 0.53418C16.9402 0.53418 21.77 5.36399 21.77 11.2671Z" fill="url(#paint4_radial_26_68)"/>
<path fill-rule="evenodd" clip-rule="evenodd" d="M21.77 11.2671C21.77 17.1702 16.9402 22 11.0371 22C5.13402 22 0.304214 17.1702 0.304214 11.2671C0.304214 5.36399 5.13402 0.53418 11.0371 0.53418C16.9402 0.53418 21.77 5.36399 21.77 11.2671Z" fill="url(#paint5_radial_26_68)"/>
<path fill-rule="evenodd" clip-rule="evenodd" d="M13.3178 8.44971C13.1837 8.04722 8.89053 8.04722 8.75636 8.44971C8.6222 8.85219 9.56133 9.38883 11.0371 9.38883C12.5129 9.38883 13.452 8.85219 13.3178 8.44971Z" fill="url(#paint6_linear_26_68)"/>
<path fill-rule="evenodd" clip-rule="evenodd" d="M8.35392 6.03478C8.35392 6.97391 7.81727 7.24223 7.0123 7.3764C6.20734 7.51056 5.53653 7.10807 5.53653 6.03478C5.53653 5.22981 5.93901 4.15652 7.0123 4.15652C7.95143 4.15652 8.35392 5.22981 8.35392 6.03478Z" fill="url(#paint7_radial_26_68)"/>
<path fill-rule="evenodd" clip-rule="evenodd" d="M6.87812 4.69317C7.01228 4.82733 7.01228 5.22981 6.74396 5.36397C6.60979 5.49813 6.34147 5.63229 6.20731 5.36397C6.07315 5.09565 6.07315 4.96149 6.20731 4.69317C6.47563 4.559 6.74396 4.559 6.87812 4.69317Z" fill="#4E506A"/>
<path fill-rule="evenodd" clip-rule="evenodd" d="M13.7203 6.03478C13.7203 6.97391 14.257 7.24223 15.1961 7.3764C16.0011 7.51056 16.6719 7.10807 16.6719 6.03478C16.6719 5.22981 16.2694 4.15652 15.1961 4.15652C14.1228 4.15652 13.7203 5.22981 13.7203 6.03478Z" fill="url(#paint8_radial_26_68)"/>
<path fill-rule="evenodd" clip-rule="evenodd" d="M15.0619 4.69317C15.1961 4.82733 15.0619 5.09565 14.9278 5.36398C14.7936 5.49814 14.5253 5.49814 14.3911 5.36398C14.257 5.22982 14.3911 4.96149 14.5253 4.69317C14.7936 4.42485 14.9278 4.42485 15.0619 4.69317Z" fill="#4E506A"/>
<path fill-rule="evenodd" clip-rule="evenodd" d="M4.8657 3.35156C4.59738 3.61988 4.8657 4.02236 5.26818 3.8882C6.07315 3.48572 7.68309 3.08324 9.0247 3.2174C9.42718 3.2174 9.56134 3.2174 9.42718 2.68075C9.42718 2.27827 8.89054 2.00995 7.81725 2.14411C6.20731 2.27827 5.13402 3.08324 4.8657 3.35156Z" fill="url(#paint9_radial_26_68)"/>
<path fill-rule="evenodd" clip-rule="evenodd" d="M14.257 2.14411C13.1837 2.00995 12.6471 2.27827 12.6471 2.68075C12.5129 3.2174 12.6471 3.2174 13.0495 3.2174C14.5253 3.08324 16.1352 3.48572 16.8061 3.8882C17.3427 4.15653 17.4769 3.61988 17.2085 3.35156C16.9402 3.08324 15.8669 2.27827 14.257 2.14411Z" fill="url(#paint10_radial_26_68)"/>
<path fill-rule="evenodd" clip-rule="evenodd" d="M13.3179 11.9379C10.5005 11.1329 9.56136 13.0112 9.56136 13.0112C9.56136 13.0112 9.82968 10.8646 7.01229 9.92547C4.32907 9.1205 2.71913 11.6696 2.58497 13.1453C2.31665 16.4994 5.26819 20.2559 6.34149 21.5975C6.47565 22 6.87813 22 7.28061 22C8.89055 21.5975 13.452 20.1217 15.1961 17.1702C15.8669 15.6944 16.0011 12.7429 13.3179 11.9379Z" fill="url(#paint11_linear_26_68)"/>
<path fill-rule="evenodd" clip-rule="evenodd" d="M13.3179 11.9379C10.5005 11.1329 9.56136 13.0112 9.56136 13.0112C9.56136 13.0112 9.82968 10.8646 7.01229 9.92547C4.32907 9.1205 2.71913 11.6696 2.58497 13.1453C2.31665 16.4994 5.26819 20.2559 6.34149 21.5975C6.47565 22 6.87813 22 7.28061 22C8.89055 21.5975 13.452 20.1217 15.1961 17.1702C15.8669 15.6944 16.0011 12.7429 13.3179 11.9379Z" fill="url(#paint12_radial_26_68)"/>
<path fill-rule="evenodd" clip-rule="evenodd" d="M13.3179 11.9379C10.5005 11.1329 9.56136 13.0112 9.56136 13.0112C9.56136 13.0112 9.82968 10.8646 7.01229 9.92547C4.32907 9.1205 2.71913 11.6696 2.58497 13.1453C2.31665 16.4994 5.26819 20.2559 6.34149 21.5975C6.47565 22 6.87813 22 7.28061 22C8.89055 21.5975 13.452 20.1217 15.1961 17.1702C15.8669 15.6944 16.0011 12.7429 13.3179 11.9379Z" fill="url(#paint13_radial_26_68)"/>
<path fill-rule="evenodd" clip-rule="evenodd" d="M13.3179 11.9379C10.5005 11.1329 9.56136 13.0112 9.56136 13.0112C9.56136 13.0112 9.82968 10.8646 7.01229 9.92547C4.32907 9.1205 2.71913 11.6696 2.58497 13.1453C2.31665 16.4994 5.26819 20.2559 6.34149 21.5975C6.47565 22 6.87813 22 7.28061 22C8.89055 21.5975 13.452 20.1217 15.1961 17.1702C15.8669 15.6944 16.0011 12.7429 13.3179 11.9379Z" fill="url(#paint14_radial_26_68)"/>
<path fill-rule="evenodd" clip-rule="evenodd" d="M13.3179 11.9379C10.5005 11.1329 9.56136 13.0112 9.56136 13.0112C9.56136 13.0112 9.82968 10.8646 7.01229 9.92547C4.32907 9.1205 2.71913 11.6696 2.58497 13.1453C2.31665 16.4994 5.26819 20.2559 6.34149 21.5975C6.47565 22 6.87813 22 7.28061 22C8.89055 21.5975 13.452 20.1217 15.1961 17.1702C15.8669 15.6944 16.0011 12.7429 13.3179 11.9379Z" fill="url(#paint15_radial_26_68)"/>
<path fill-rule="evenodd" clip-rule="evenodd" d="M13.3179 11.9379C10.5005 11.1329 9.56136 13.0112 9.56136 13.0112C9.56136 13.0112 9.82968 10.8646 7.01229 9.92547C4.32907 9.1205 2.71913 11.6696 2.58497 13.1453C2.31665 16.4994 5.26819 20.2559 6.34149 21.5975C6.47565 22 6.87813 22 7.28061 22C8.89055 21.5975 13.452 20.1217 15.1961 17.1702C15.8669 15.6944 16.0011 12.7429 13.3179 11.9379Z" fill="url(#paint16_radial_26_68)"/>
<path fill-rule="evenodd" clip-rule="evenodd" d="M13.3179 11.9379C10.5005 11.1329 9.56136 13.0112 9.56136 13.0112C9.56136 13.0112 9.82968 10.8646 7.01229 9.92547C4.32907 9.1205 2.71913 11.6696 2.58497 13.1453C2.31665 16.4994 5.26819 20.2559 6.34149 21.5975C6.47565 22 6.87813 22 7.28061 22C8.89055 21.5975 13.452 20.1217 15.1961 17.1702C15.8669 15.6944 16.0011 12.7429 13.3179 11.9379Z" fill="url(#paint17_radial_26_68)"/>
<mask id="mask0_26_68" style="mask-type:alpha" maskUnits="userSpaceOnUse" x="0" y="0" width="22" height="22">
<path fill-rule="evenodd" clip-rule="evenodd" d="M21.77 11.2671C21.77 17.1702 16.9402 22 11.0371 22C5.13402 22 0.304214 17.1702 0.304214 11.2671C0.304214 5.36399 5.13402 0.53418 11.0371 0.53418C16.9402 0.53418 21.77 5.36399 21.77 11.2671Z" fill="white"/>
</mask>
<g mask="url(#mask0_26_68)">
<path fill-rule="evenodd" clip-rule="evenodd" d="M2.04831 10.8646C1.3775 10.1938 0.170047 9.79131 0.0358853 11.4012C-0.098276 12.6087 0.438369 14.7553 1.91414 15.9627C5.67066 18.9143 9.02469 17.3043 9.15886 15.1578C9.29302 13.5478 7.2806 13.682 6.74395 13.682C6.74395 13.682 6.74395 13.682 6.74395 13.5478C6.87811 13.4137 7.14644 13.2795 7.2806 13.1453C7.81724 12.7429 7.54892 12.0721 6.87811 12.2062C6.74395 12.2062 5.13402 12.7429 4.06073 12.3404C2.98743 11.9379 2.85327 11.5354 2.04831 10.8646Z" fill="url(#paint18_radial_26_68)"/>
<path d="M19.4893 10.9988C19.8918 10.1938 20.5626 10.4621 20.9651 10.5963C21.5017 10.7304 21.9042 11.1329 21.9042 11.9379C21.9042 13.9503 21.6359 15.8286 19.8918 17.7068C16.8061 21.195 11.5738 20.6584 11.0371 18.5118C10.6346 16.9019 12.5129 16.6335 13.1837 16.6335V16.4994C12.9154 16.3652 12.7812 16.2311 12.5129 16.0969C11.9762 15.6944 12.1104 14.8894 12.7812 15.0236C13.5862 15.1578 14.6595 15.4261 15.4644 15.2919C18.0135 15.0236 18.416 13.0112 19.4893 10.9988Z" fill="url(#paint19_radial_26_68)"/>
</g>
</g>
<defs>
<linearGradient id="paint0_linear_26_68" x1="11.0264" y1="20.9374" x2="11.0264" y2="2.13338" gradientUnits="userSpaceOnUse">
<stop stop-color="#F28A2D"/>
<stop offset="1" stop-color="#FDE86F"/>
</linearGradient>
<radialGradient id="paint1_radial_26_68" cx="0" cy="0" r="1" gradientUnits="userSpaceOnUse" gradientTransform="translate(11.0264 11.2564) scale(10.7329)">
<stop stop-color="#F28A2D" stop-opacity="0"/>
<stop offset="1" stop-color="#F08423" stop-opacity="0.34"/>
</radialGradient>
<radialGradient id="paint2_radial_26_68" cx="0" cy="0" r="1" gradientUnits="userSpaceOnUse" gradientTransform="translate(2.62612 11.6972) rotate(24.1484) scale(2.16804 1.67696)">
<stop stop-color="#F28A2D" stop-opacity="0.5"/>
<stop offset="1" stop-color="#F28A2D" stop-opacity="0"/>
</radialGradient>
<radialGradient id="paint3_radial_26_68" cx="0" cy="0" r="1" gradientUnits="userSpaceOnUse" gradientTransform="translate(16.2261 16.3298) rotate(-38.243) scale(6.07484 2.21008)">
<stop stop-color="#F28A2D" stop-opacity="0.5"/>
<stop offset="1" stop-color="#F28A2D" stop-opacity="0"/>
</radialGradient>
<radialGradient id="paint4_radial_26_68" cx="0" cy="0" r="1" gradientUnits="userSpaceOnUse" gradientTransform="translate(7.138 3.25733) rotate(-10.3559) scale(2.29685 0.456747)">
<stop stop-color="#D45F00" stop-opacity="0.15"/>
<stop offset="1" stop-color="#F28A2D" stop-opacity="0"/>
</radialGradient>
<radialGradient id="paint5_radial_26_68" cx="0" cy="0" r="1" gradientUnits="userSpaceOnUse" gradientTransform="translate(14.9163 3.41468) rotate(11.5352) scale(2.27537 0.452497)">
<stop stop-color="#D45F00" stop-opacity="0.15"/>
<stop offset="1" stop-color="#D45F00" stop-opacity="0"/>
</radialGradient>
<linearGradient id="paint6_linear_26_68" x1="11.0367" y1="7.65724" x2="11.0367" y2="9.56758" gradientUnits="userSpaceOnUse">
<stop stop-color="#482314"/>
<stop offset="1" stop-color="#9A4111"/>
</linearGradient>
<radialGradient id="paint7_radial_26_68" cx="0" cy="0" r="1" gradientUnits="userSpaceOnUse" gradientTransform="translate(7.00262 6.26439) rotate(-90) scale(2.4949 2.49502)">
<stop stop-color="#3B446B"/>
<stop offset="0.688" stop-color="#202340"/>
</radialGradient>
<radialGradient id="paint8_radial_26_68" cx="0" cy="0" r="1" gradientUnits="userSpaceOnUse" gradientTransform="translate(15.0711 6.26285) rotate(-90) scale(2.4949 2.49502)">
<stop stop-color="#3B446B"/>
<stop offset="0.688" stop-color="#202340"/>
</radialGradient>
<radialGradient id="paint9_radial_26_68" cx="0" cy="0" r="1" gradientUnits="userSpaceOnUse" gradientTransform="translate(7.0143 2.8292) rotate(-104.427) scale(0.543972 2.52153)">
<stop stop-color="#E38200"/>
<stop offset="1" stop-color="#CD6700"/>
</radialGradient>
<radialGradient id="paint10_radial_26_68" cx="0" cy="0" r="1" gradientUnits="userSpaceOnUse" gradientTransform="translate(14.9745 2.58851) rotate(-79.0815) scale(0.573145 3.40129)">
<stop stop-color="#E38200"/>
<stop offset="1" stop-color="#CD6700"/>
</radialGradient>
<linearGradient id="paint11_linear_26_68" x1="9.36463" y1="13.6118" x2="6.64022" y2="22.3888" gradientUnits="userSpaceOnUse">
<stop stop-color="#F34462"/>
<stop offset="1" stop-color="#CC0820"/>
</linearGradient>
<radialGradient id="paint12_radial_26_68" cx="0" cy="0" r="1" gradientUnits="userSpaceOnUse" gradientTransform="translate(12.1648 15.2047) rotate(20.3927) scale(3.53235 3.53237)">
<stop stop-color="#FF7091" stop-opacity="0.7"/>
<stop offset="1" stop-color="#FE6D8E" stop-opacity="0"/>
</radialGradient>
<radialGradient id="paint13_radial_26_68" cx="0" cy="0" r="1" gradientUnits="userSpaceOnUse" gradientTransform="translate(6.03056 13.4255) rotate(20.3927) scale(3.53235 3.53237)">
<stop stop-color="#FF7091" stop-opacity="0.7"/>
<stop offset="1" stop-color="#FE6D8E" stop-opacity="0"/>
</radialGradient>
<radialGradient id="paint14_radial_26_68" cx="0" cy="0" r="1" gradientUnits="userSpaceOnUse" gradientTransform="translate(5.64973 16.3147) rotate(101.61) scale(3.03293 4.17636)">
<stop stop-color="#9C0600"/>
<stop offset="1" stop-color="#9C0600" stop-opacity="0"/>
</radialGradient>
<radialGradient id="paint15_radial_26_68" cx="0" cy="0" r="1" gradientUnits="userSpaceOnUse" gradientTransform="translate(15.6175 16.6238) rotate(30.6331) scale(1.82707 2.29304)">
<stop stop-color="#9C0600" stop-opacity="0.5"/>
<stop offset="1" stop-color="#9C0600" stop-opacity="0"/>
</radialGradient>
<radialGradient id="paint16_radial_26_68" cx="0" cy="0" r="1" gradientUnits="userSpaceOnUse" gradientTransform="translate(3.06357 12.7609) rotate(-20.1593) scale(1.58346 2.04055)">
<stop stop-color="#9C0600" stop-opacity="0.5"/>
<stop offset="1" stop-color="#9C0600" stop-opacity="0"/>
</radialGradient>
<radialGradient id="paint17_radial_26_68" cx="0" cy="0" r="1" gradientUnits="userSpaceOnUse" gradientTransform="translate(12.2915 19.2022) rotate(34.0715) scale(2.13159 2.30863)">
<stop stop-color="#9C0600" stop-opacity="0.999"/>
<stop offset="1" stop-color="#9C0600" stop-opacity="0"/>
</radialGradient>
<radialGradient id="paint18_radial_26_68" cx="0" cy="0" r="1" gradientUnits="userSpaceOnUse" gradientTransform="translate(0.195692 10.5549) rotate(36.5187) scale(8.91972 8.91962)">
<stop stop-color="#EDA83A"/>
<stop offset="1" stop-color="#FFDC5E"/>
</radialGradient>
<radialGradient id="paint19_radial_26_68" cx="0" cy="0" r="1" gradientUnits="userSpaceOnUse" gradientTransform="translate(21.3058 10.9142) scale(11.8679)">
<stop stop-color="#EDA83A"/>
<stop offset="1" stop-color="#FFDC5E"/>
</radialGradient>
<clipPath id="clip0_26_68">
<rect width="21.4658" height="21.4658" fill="white" transform="translate(0.304214 0.53418)"/>
</clipPath>
</defs>
</svg>
