<svg width="23" height="22" viewBox="0 0 23 22" fill="none" xmlns="http://www.w3.org/2000/svg">
<g clip-path="url(#clip0_26_70)">
<path d="M22.3662 11.2671C22.3662 14.1136 21.2354 16.8436 19.2227 18.8565C17.2098 20.8691 14.4798 22 11.6333 22C8.78675 22 6.0568 20.8691 4.04399 18.8565C2.03118 16.8436 0.900391 14.1136 0.900391 11.2671C0.900391 8.42054 2.03118 5.69059 4.04399 3.67778C6.0568 1.66496 8.78675 0.53418 11.6333 0.53418C14.4798 0.53418 17.2098 1.66496 19.2227 3.67778C21.2354 5.69059 22.3662 8.42054 22.3662 11.2671Z" fill="url(#paint0_linear_26_70)"/>
<path d="M4.92523 11.2778C4.92523 13.9812 6.27489 19.3168 11.6333 19.3168C16.9904 19.3168 18.3414 13.9812 18.3414 11.2778C18.3414 11.0645 16.1814 9.92548 11.6333 9.92548C7.08523 9.92548 4.92523 11.0645 4.92523 11.2778Z" fill="url(#paint1_linear_26_70)"/>
<path d="M6.99268 17.3044C8.07133 18.6393 9.55113 19.3168 11.6467 19.3168C13.7437 19.3168 15.2087 18.6393 16.2873 17.3044C15.5481 16.5155 14.1421 15.2919 11.6467 15.2919C9.15133 15.2919 7.73325 16.5155 6.99268 17.3044Z" fill="url(#paint2_linear_26_70)"/>
<path d="M9.23579 6.09354C9.58864 6.34576 9.90928 6.70397 9.78586 7.15073C9.6906 7.4915 9.52558 7.64578 9.21969 7.64847C8.17324 7.66322 6.92822 7.99058 5.85761 8.46953C5.77041 8.50844 5.59331 8.58759 5.4122 8.58357C5.24584 8.57954 5.07545 8.50576 4.97349 8.26561C4.8836 8.05497 4.87555 7.74506 5.34377 7.46332C6.07495 7.02059 7.03018 6.81935 7.90491 6.65299C7.35562 6.24708 6.76411 5.90163 6.14069 5.62263C5.56782 5.36236 5.63088 5.00951 5.70735 4.81766C5.87774 4.39237 6.52439 4.55471 7.15361 4.85254C7.88754 5.19533 8.58511 5.61108 9.23579 6.09354ZM14.0347 6.09354C14.6844 5.61088 15.3811 5.1951 16.1143 4.85254C16.7448 4.55471 17.3888 4.39237 17.5605 4.81766C17.637 5.00951 17.7001 5.36236 17.1272 5.62263C16.5044 5.90135 15.9138 6.24683 15.3657 6.65299C16.2377 6.81801 17.1943 7.02059 17.9241 7.46332C18.3923 7.74506 18.383 8.05363 18.2944 8.26561C18.1911 8.5071 18.0221 8.57954 17.8557 8.58357C17.6746 8.58759 17.4975 8.50844 17.4103 8.46953C16.341 7.99058 15.096 7.66456 14.0508 7.64847C13.745 7.64578 13.5799 7.4915 13.4847 7.15207C13.3626 6.70531 13.6819 6.3471 14.0347 6.09488V6.09354Z" fill="#2A3755"/>
</g>
<defs>
<linearGradient id="paint0_linear_26_70" x1="11.6333" y1="2.73443" x2="11.6333" y2="22" gradientUnits="userSpaceOnUse">
<stop stop-color="#FEEA70"/>
<stop offset="1" stop-color="#F69B30"/>
</linearGradient>
<linearGradient id="paint1_linear_26_70" x1="11.6333" y1="9.92548" x2="11.6333" y2="19.3168" gradientUnits="userSpaceOnUse">
<stop stop-color="#472315"/>
<stop offset="1" stop-color="#8B3A0E"/>
</linearGradient>
<linearGradient id="paint2_linear_26_70" x1="11.64" y1="15.2919" x2="11.64" y2="18.5883" gradientUnits="userSpaceOnUse">
<stop stop-color="#FC607C"/>
<stop offset="1" stop-color="#D91F3A"/>
</linearGradient>
<clipPath id="clip0_26_70">
<rect width="21.4658" height="21.4658" fill="white" transform="translate(0.900391 0.53418)"/>
</clipPath>
</defs>
</svg>
