<svg width="209" height="46" viewBox="0 0 209 46" fill="none" xmlns="http://www.w3.org/2000/svg">
<path d="M68.5469 16.7891H63.2734V32H61.1641V16.7891H55.8906V14.9375H68.5469V16.7891ZM76.4805 23.5039L80.3711 14.9375H82.832L77.5234 25.6367L77.4883 32H75.4727L75.4375 25.6367L70.1289 14.9375H72.6016L76.4805 23.5039ZM88.3164 30.1602H96.6602V32H86.1484V14.9375H88.3164V30.1602ZM109.668 24.1133H102.543V30.1602H110.852V32H100.375V14.9375H110.746V16.7891H102.543V22.2734H109.668V24.1133ZM120.344 25.0391H116.934V32H114.777V14.9375H119.781C120.578 14.9531 121.328 15.0664 122.031 15.2773C122.734 15.4883 123.352 15.8047 123.883 16.2266C124.406 16.6484 124.816 17.1797 125.113 17.8203C125.418 18.4531 125.57 19.1992 125.57 20.0586C125.57 20.6133 125.488 21.1211 125.324 21.582C125.168 22.043 124.949 22.4609 124.668 22.8359C124.387 23.2109 124.051 23.543 123.66 23.832C123.27 24.1211 122.84 24.3672 122.371 24.5703L125.992 31.8594L125.98 32H123.695L120.344 25.0391ZM116.934 23.2578H119.84C120.324 23.25 120.781 23.1758 121.211 23.0352C121.641 22.8867 122.02 22.6758 122.348 22.4023C122.668 22.1289 122.922 21.7969 123.109 21.4062C123.297 21.0078 123.391 20.5508 123.391 20.0352C123.391 19.4883 123.301 19.0117 123.121 18.6055C122.941 18.1914 122.691 17.8438 122.371 17.5625C122.051 17.2891 121.668 17.082 121.223 16.9414C120.785 16.8008 120.305 16.7266 119.781 16.7188H116.934V23.2578ZM145.891 25.1562V32H143.723V14.9375H149.254C150.02 14.9531 150.742 15.0742 151.422 15.3008C152.109 15.5273 152.711 15.8555 153.227 16.2852C153.742 16.7148 154.148 17.2461 154.445 17.8789C154.75 18.5117 154.902 19.2383 154.902 20.0586C154.902 20.8789 154.75 21.6055 154.445 22.2383C154.148 22.8633 153.742 23.3906 153.227 23.8203C152.711 24.25 152.109 24.5781 151.422 24.8047C150.742 25.0312 150.02 25.1484 149.254 25.1562H145.891ZM145.891 23.375H149.254C149.754 23.3672 150.215 23.2891 150.637 23.1406C151.059 22.9844 151.426 22.7656 151.738 22.4844C152.051 22.2031 152.293 21.8633 152.465 21.4648C152.645 21.0586 152.734 20.5977 152.734 20.082C152.734 19.5664 152.645 19.1016 152.465 18.6875C152.293 18.2734 152.055 17.9219 151.75 17.6328C151.438 17.3438 151.066 17.1211 150.637 16.9648C150.215 16.8086 149.754 16.7266 149.254 16.7188H145.891V23.375ZM168.637 32H166.586V24.1133H159.59V32H157.551V14.9375H159.59V22.2734H166.586V14.9375H168.637V32ZM180.496 27.582H174.801L173.43 32H171.262L176.77 14.9375H178.586L184 32H181.844L180.496 27.582ZM175.387 25.6953H179.922L177.672 18.2891L175.387 25.6953ZM197.453 32H195.25L188.629 19.25L188.594 32H186.402V14.9375H188.605L195.227 27.6641L195.262 14.9375H197.453V32Z" fill="black"/>
<path d="M23 46C35.7025 46 46 35.7025 46 23C46 10.2975 35.7025 0 23 0C10.2975 0 0 10.2975 0 23C0 35.7025 10.2975 46 23 46Z" fill="black"/>
<path d="M31.3338 13.884C31.2618 14.802 31.2078 15.684 31.1718 16.53C31.1538 17.376 31.1448 18.024 31.1448 18.474C31.1448 18.87 31.1538 19.248 31.1718 19.608C31.1898 19.968 31.2078 20.274 31.2258 20.526H30.6048C30.3168 19.014 29.9478 17.817 29.4978 16.935C29.0658 16.053 28.5438 15.432 27.9318 15.072C27.3198 14.694 26.5998 14.505 25.7718 14.505H25.1508V29.922C25.1508 30.642 25.2228 31.182 25.3668 31.542C25.5288 31.902 25.8168 32.145 26.2308 32.271C26.6448 32.379 27.2478 32.442 28.0398 32.46V33C27.4818 32.982 26.7348 32.964 25.7988 32.946C24.8808 32.928 23.9178 32.919 22.9098 32.919C21.9198 32.919 20.9838 32.928 20.1018 32.946C19.2198 32.964 18.5088 32.982 17.9688 33V32.46C18.7788 32.442 19.3908 32.379 19.8048 32.271C20.2188 32.145 20.4978 31.902 20.6418 31.542C20.7858 31.182 20.8578 30.642 20.8578 29.922V14.505H20.2638C19.4358 14.505 18.7158 14.694 18.1038 15.072C17.4918 15.432 16.9698 16.053 16.5378 16.935C16.1058 17.799 15.7278 18.996 15.4038 20.526H14.7828C14.8188 20.274 14.8368 19.968 14.8368 19.608C14.8548 19.248 14.8638 18.87 14.8638 18.474C14.8638 18.024 14.8458 17.376 14.8098 16.53C14.7918 15.684 14.7468 14.802 14.6748 13.884C15.5028 13.902 16.4028 13.92 17.3748 13.938C18.3648 13.956 19.3548 13.965 20.3448 13.965C21.3348 13.965 22.2258 13.965 23.0178 13.965C23.8278 13.965 24.7188 13.965 25.6908 13.965C26.6808 13.965 27.6708 13.956 28.6608 13.938C29.6508 13.92 30.5418 13.902 31.3338 13.884Z" fill="white"/>
</svg>
