<svg width="23" height="22" viewBox="0 0 23 22" fill="none" xmlns="http://www.w3.org/2000/svg">
<g clip-path="url(#clip0_26_69)">
<path d="M11.3352 0.53418C8.48866 0.53418 5.7587 1.66496 3.7459 3.67778C1.73308 5.69059 0.602295 8.42054 0.602295 11.2671C0.602295 14.1136 1.73308 16.8436 3.7459 18.8565C5.7587 20.8691 8.48866 22 11.3352 22C14.1817 22 16.9118 20.8691 18.9246 18.8565C20.9373 16.8436 22.0681 14.1136 22.0681 11.2671C22.0681 8.42054 20.9373 5.69059 18.9246 3.67778C16.9118 1.66496 14.1817 0.53418 11.3352 0.53418Z" fill="url(#paint0_linear_26_69)"/>
<path d="M14.6533 5.90063C11.7045 5.90063 11.3355 8.34774 11.3355 8.34774C11.3355 8.34774 10.9679 5.90063 8.01905 5.90063C5.18288 5.90063 4.35645 8.8817 4.70258 10.4755C5.61488 14.6882 11.3355 17.6398 11.3355 17.6398C11.3355 17.6398 17.0575 14.6882 17.9698 10.4755C18.3145 8.8817 17.4868 5.90063 14.6533 5.90063Z" fill="white"/>
</g>
<defs>
<linearGradient id="paint0_linear_26_69" x1="11.3352" y1="0.53418" x2="11.3352" y2="22" gradientUnits="userSpaceOnUse">
<stop stop-color="#FF6680"/>
<stop offset="1" stop-color="#E61739"/>
</linearGradient>
<clipPath id="clip0_26_69">
<rect width="21.4658" height="21.4658" fill="white" transform="translate(0.602295 0.53418)"/>
</clipPath>
</defs>
</svg>
