<svg width="22" height="22" viewBox="0 0 22 22" fill="none" xmlns="http://www.w3.org/2000/svg">
<g clip-path="url(#clip0_26_71)">
<path d="M21.6643 11.2671C21.6643 14.1136 20.5334 16.8436 18.5207 18.8565C16.5079 20.8691 13.7779 22 10.9314 22C8.08482 22 5.35487 20.8691 3.34206 18.8565C1.32924 16.8436 0.198456 14.1136 0.198456 11.2671C0.198456 8.42054 1.32924 5.69059 3.34206 3.67778C5.35487 1.66496 8.08482 0.53418 10.9314 0.53418C13.7779 0.53418 16.5079 1.66496 18.5207 3.67778C20.5334 5.69059 21.6643 8.42054 21.6643 11.2671Z" fill="url(#paint0_linear_26_71)"/>
<path d="M7.3533 17.6599C7.3533 17.8437 7.47941 17.9752 7.68871 17.9752C8.15961 17.9752 8.81029 17.1366 10.9314 17.1366C13.0525 17.1366 13.7045 17.9752 14.174 17.9752C14.3833 17.9752 14.5095 17.8437 14.5095 17.6599C14.5095 17.1273 13.3839 15.2919 10.9314 15.2919C8.47891 15.2919 7.3533 17.1273 7.3533 17.6599Z" fill="url(#paint1_linear_26_71)"/>
<path d="M5.02655 12.3404C5.02655 11.2536 5.70943 10.3736 6.54793 10.3736C7.38913 10.3736 8.06932 11.2536 8.06932 12.3404C8.06932 12.7938 7.94992 13.2124 7.75002 13.5451C7.66065 13.6952 7.51544 13.8038 7.34619 13.847C7.15837 13.8966 6.8726 13.9503 6.54793 13.9503C6.22192 13.9503 5.94018 13.8966 5.74967 13.847C5.58079 13.8037 5.43602 13.6951 5.34719 13.5451C5.13314 13.18 5.02231 12.7636 5.02655 12.3404ZM13.7926 12.3404C13.7926 11.2536 14.4742 10.3736 15.3127 10.3736C16.1539 10.3736 16.8341 11.2536 16.8341 12.3404C16.8341 12.7938 16.7147 13.2124 16.5148 13.5451C16.4706 13.6195 16.4123 13.6845 16.3429 13.7363C16.2737 13.7881 16.1948 13.8257 16.1109 13.847C15.5878 13.9825 15.0388 13.9825 14.5157 13.847C14.4319 13.8257 14.353 13.7881 14.2838 13.7363C14.2144 13.6845 14.1561 13.6195 14.1119 13.5451C13.8983 13.1799 13.7879 12.7635 13.7926 12.3404Z" fill="url(#paint2_linear_26_71)"/>
<g filter="url(#filter0_i_26_71)">
<path d="M5.02655 12.3404C5.02655 11.2536 5.70943 10.3736 6.54793 10.3736C7.38913 10.3736 8.06932 11.2536 8.06932 12.3404C8.06932 12.7938 7.94992 13.2124 7.75002 13.5451C7.66065 13.6952 7.51544 13.8038 7.34619 13.847C7.15837 13.8966 6.8726 13.9503 6.54793 13.9503C6.22192 13.9503 5.94018 13.8966 5.74967 13.847C5.58079 13.8037 5.43602 13.6951 5.34719 13.5451C5.13314 13.18 5.02231 12.7636 5.02655 12.3404ZM13.7926 12.3404C13.7926 11.2536 14.4742 10.3736 15.3127 10.3736C16.1539 10.3736 16.8341 11.2536 16.8341 12.3404C16.8341 12.7938 16.7147 13.2124 16.5148 13.5451C16.4706 13.6195 16.4123 13.6845 16.3429 13.7363C16.2737 13.7881 16.1948 13.8257 16.1109 13.847C15.5878 13.9825 15.0388 13.9825 14.5157 13.847C14.4319 13.8257 14.353 13.7881 14.2838 13.7363C14.2144 13.6845 14.1561 13.6195 14.1119 13.5451C13.8983 13.1799 13.7879 12.7635 13.7926 12.3404Z" fill="black"/>
</g>
<path d="M6.39128 11.2477C6.56301 11.4154 6.57374 11.7468 6.41409 11.9869C6.25309 12.2258 5.98477 12.2848 5.81304 12.1157C5.64132 11.948 5.63193 11.6167 5.79024 11.3779C5.95123 11.1377 6.21955 11.08 6.39128 11.2477ZM15.0971 11.2477C15.2688 11.4154 15.2795 11.7468 15.1212 11.9869C14.9602 12.2258 14.6919 12.2848 14.5175 12.1157C14.3471 11.948 14.3377 11.6167 14.4974 11.3779C14.657 11.1377 14.9253 11.08 15.0971 11.2477Z" fill="#4E506A"/>
<path d="M5.77582 7.44697C6.22124 7.2417 6.57542 7.15315 6.85045 7.15315C7.22208 7.15315 7.45552 7.3128 7.58834 7.56369C7.82312 8.00508 7.71713 8.10167 7.3227 8.17949C5.83888 8.48001 4.34834 9.44329 3.70169 10.0443C3.29786 10.42 2.91148 10.0041 3.11674 9.67673C3.32335 9.34937 4.15515 8.19424 5.77582 7.44697ZM14.2749 7.56369C14.4078 7.3128 14.6412 7.15315 15.0128 7.15315C15.2892 7.15315 15.642 7.2417 16.0875 7.44697C17.7081 8.19424 18.5399 9.34937 18.7452 9.67673C18.9505 10.0041 18.5654 10.42 18.1616 10.0443C17.5136 9.44329 16.0244 8.48001 14.5392 8.17949C14.1448 8.10167 14.0415 8.00508 14.2749 7.56369Z" fill="url(#paint3_linear_26_71)"/>
<path d="M18.3102 22C17.1994 22 16.2978 20.9965 16.2978 19.7582C16.2978 18.5212 16.7754 17.6854 17.1605 16.8777C17.9628 15.19 18.1211 14.9565 18.3102 14.9565C18.4994 14.9565 18.6577 15.19 19.46 16.8777C19.845 17.6854 20.3227 18.5212 20.3227 19.7582C20.3227 20.9965 19.4211 22 18.3102 22Z" fill="url(#paint4_linear_26_71)"/>
<path d="M18.3105 18.7886C17.8704 18.7886 17.5136 18.3915 17.5136 17.9031C17.5136 17.4121 17.7029 17.0807 17.8558 16.7601C18.1724 16.0919 18.2354 16.0007 18.3105 16.0007C18.3856 16.0007 18.4487 16.0919 18.7653 16.7601C18.9182 17.082 19.1074 17.4121 19.1074 17.9018C19.1074 18.3915 18.7505 18.7886 18.3105 18.7886Z" fill="url(#paint5_linear_26_71)"/>
</g>
<defs>
<filter id="filter0_i_26_71" x="5.02643" y="10.3736" width="11.8076" height="3.57674" filterUnits="userSpaceOnUse" color-interpolation-filters="sRGB">
<feFlood flood-opacity="0" result="BackgroundImageFix"/>
<feBlend mode="normal" in="SourceGraphic" in2="BackgroundImageFix" result="shape"/>
<feColorMatrix in="SourceAlpha" type="matrix" values="0 0 0 0 0 0 0 0 0 0 0 0 0 0 0 0 0 0 127 0" result="hardAlpha"/>
<feOffset/>
<feGaussianBlur stdDeviation="0.670807"/>
<feComposite in2="hardAlpha" operator="arithmetic" k2="-1" k3="1"/>
<feColorMatrix type="matrix" values="0 0 0 0 0.0411227 0 0 0 0 0.0430885 0 0 0 0 0.0922353 0 0 0 0.819684 0"/>
<feBlend mode="normal" in2="shape" result="effect1_innerShadow_26_71"/>
</filter>
<linearGradient id="paint0_linear_26_71" x1="10.9314" y1="2.73443" x2="10.9314" y2="22" gradientUnits="userSpaceOnUse">
<stop stop-color="#FEEA70"/>
<stop offset="1" stop-color="#F69B30"/>
</linearGradient>
<linearGradient id="paint1_linear_26_71" x1="10.9314" y1="15.2919" x2="10.9314" y2="17.9752" gradientUnits="userSpaceOnUse">
<stop stop-color="#472315"/>
<stop offset="1" stop-color="#8B3A0E"/>
</linearGradient>
<linearGradient id="paint2_linear_26_71" x1="10.93" y1="10.3736" x2="10.93" y2="13.9503" gradientUnits="userSpaceOnUse">
<stop stop-color="#191A33"/>
<stop offset="0.872" stop-color="#3B426A"/>
</linearGradient>
<linearGradient id="paint3_linear_26_71" x1="10.9314" y1="7.1537" x2="10.9314" y2="10.1925" gradientUnits="userSpaceOnUse">
<stop stop-color="#E78E0D"/>
<stop offset="1" stop-color="#CB6000"/>
</linearGradient>
<linearGradient id="paint4_linear_26_71" x1="18.3102" y1="20.7255" x2="18.3102" y2="16.2203" gradientUnits="userSpaceOnUse">
<stop stop-color="#35CAFC"/>
<stop offset="1" stop-color="#007EDB"/>
</linearGradient>
<linearGradient id="paint5_linear_26_71" x1="18.3102" y1="16.0003" x2="18.3102" y2="18.7882" gradientUnits="userSpaceOnUse">
<stop stop-color="#6AE1FF" stop-opacity="0.287"/>
<stop offset="1" stop-color="#A8E3FF" stop-opacity="0.799"/>
</linearGradient>
<clipPath id="clip0_26_71">
<rect width="21.4658" height="21.4658" fill="white" transform="translate(0.198456 0.53418)"/>
</clipPath>
</defs>
</svg>
