<svg width="22" height="22" viewBox="0 0 22 22" fill="none" xmlns="http://www.w3.org/2000/svg">
<g clip-path="url(#clip0_26_72)">
<path d="M21.9623 11.2671C21.9623 14.1136 20.8315 16.8436 18.8188 18.8565C16.806 20.8691 14.0759 22 11.2294 22C8.38289 22 5.65293 20.8691 3.64012 18.8565C1.62731 16.8436 0.496521 14.1136 0.496521 11.2671C0.496521 8.42054 1.62731 5.69059 3.64012 3.67778C5.65293 1.66496 8.38289 0.53418 11.2294 0.53418C14.0759 0.53418 16.806 1.66496 18.8188 3.67778C20.8315 5.69059 21.9623 8.42054 21.9623 11.2671Z" fill="url(#paint0_linear_26_72)"/>
<path d="M8.06737 15.1417C7.8554 17.6169 9.04138 19.3168 11.2296 19.3168C13.4164 19.3168 14.6037 17.6169 14.3917 15.1417C14.1811 12.6651 12.8958 11.2671 11.2296 11.2671C9.56327 11.2671 8.27801 12.6651 8.06737 15.1417Z" fill="url(#paint1_linear_26_72)"/>
<path d="M5.19217 7.91305C5.19217 6.8022 5.94213 5.90063 6.86919 5.90063C7.79624 5.90063 8.5462 6.8022 8.5462 7.91305C8.5462 9.02525 7.79624 9.92547 6.86919 9.92547C5.94213 9.92547 5.19217 9.02525 5.19217 7.91305ZM13.9127 7.91305C13.9127 6.8022 14.664 5.90063 15.5897 5.90063C16.5167 5.90063 17.2667 6.8022 17.2667 7.91305C17.2667 9.02525 16.5167 9.92547 15.5897 9.92547C14.664 9.92547 13.9127 9.02525 13.9127 7.91305Z" fill="url(#paint2_linear_26_72)"/>
<g filter="url(#filter0_i_26_72)">
<path d="M5.19217 7.91305C5.19217 6.8022 5.94213 5.90063 6.86919 5.90063C7.79624 5.90063 8.5462 6.8022 8.5462 7.91305C8.5462 9.02525 7.79624 9.92547 6.86919 9.92547C5.94213 9.92547 5.19217 9.02525 5.19217 7.91305ZM13.9127 7.91305C13.9127 6.8022 14.664 5.90063 15.5897 5.90063C16.5167 5.90063 17.2667 6.8022 17.2667 7.91305C17.2667 9.02525 16.5167 9.92547 15.5897 9.92547C14.664 9.92547 13.9127 9.02525 13.9127 7.91305Z" fill="black"/>
</g>
<path d="M6.5089 6.66155C6.75844 6.7179 6.89797 6.99964 6.82015 7.29077C6.74368 7.58324 6.47938 7.77375 6.22984 7.7174C5.9803 7.66105 5.84078 7.37931 5.91859 7.08684C5.99506 6.79705 6.25936 6.60386 6.5089 6.66155ZM15.4414 6.74607C15.7178 6.80913 15.8734 7.12172 15.7875 7.44371C15.7017 7.76972 15.4092 7.98035 15.1315 7.91864C14.8551 7.85693 14.6995 7.54299 14.7854 7.21966C14.8699 6.89499 15.1637 6.68301 15.4428 6.74607H15.4414Z" fill="#4E506A"/>
<g filter="url(#filter1_d_26_72)">
<path d="M15.3458 2.80933C15.4155 2.80262 15.4853 2.79994 15.5564 2.79994C16.2098 2.79994 16.8846 3.07363 17.3971 3.55393C17.4895 3.64202 17.5443 3.76251 17.5498 3.89008C17.5553 4.01767 17.5111 4.14242 17.4266 4.23815C17.3858 4.28509 17.3358 4.3233 17.2798 4.35045C17.2239 4.37761 17.163 4.39316 17.1007 4.39616C17.0386 4.39917 16.9765 4.38958 16.9181 4.36795C16.8598 4.34634 16.8064 4.31313 16.7612 4.27035C16.3922 3.92287 15.8811 3.7337 15.4303 3.77529C15.274 3.78699 15.122 3.83282 14.9853 3.90953C14.8486 3.98626 14.7302 4.09202 14.6387 4.21937C14.602 4.26927 14.5556 4.31132 14.5023 4.34302C14.449 4.37472 14.39 4.39544 14.3287 4.40394C14.2673 4.41244 14.2047 4.40856 14.1449 4.39253C14.0851 4.3765 14.029 4.34864 13.98 4.3106C13.8798 4.23098 13.8144 4.11555 13.7976 3.98866C13.7809 3.86176 13.814 3.73331 13.8901 3.6304C14.0592 3.39661 14.2768 3.20217 14.5281 3.06044C14.7793 2.91871 15.0583 2.83305 15.3458 2.80933ZM5.06233 3.55393C5.55976 3.08086 6.21666 2.81177 6.90302 2.79994C7.22727 2.79291 7.54839 2.86482 7.83866 3.0095C8.12895 3.15417 8.37969 3.36725 8.5693 3.6304C8.64524 3.73326 8.67843 3.86152 8.66193 3.98831C8.64541 4.11511 8.58049 4.2306 8.48076 4.3106C8.43171 4.34867 8.37555 4.37656 8.31557 4.39261C8.25559 4.40865 8.19301 4.41254 8.1315 4.40404C8.07 4.39555 8.0108 4.37483 7.95743 4.3431C7.90405 4.31139 7.85755 4.26931 7.82068 4.21937C7.72913 4.09207 7.61083 3.98637 7.47409 3.90965C7.33735 3.83294 7.18547 3.78708 7.02913 3.77529C6.57969 3.7337 6.0672 3.92287 5.69825 4.27035C5.65305 4.31313 5.59967 4.34634 5.54131 4.36795C5.48295 4.38958 5.42082 4.39917 5.35866 4.39616C5.29651 4.39316 5.23558 4.37761 5.17958 4.35045C5.12359 4.3233 5.07366 4.28509 5.03281 4.23815C4.94829 4.14242 4.90414 4.01767 4.90964 3.89008C4.91515 3.76251 4.96988 3.64202 5.06233 3.55393Z" fill="black"/>
</g>
<path d="M15.3458 2.80933C15.4155 2.80262 15.4853 2.79994 15.5564 2.79994C16.2098 2.79994 16.8846 3.07363 17.3971 3.55393C17.4895 3.64202 17.5443 3.76251 17.5498 3.89008C17.5553 4.01767 17.5111 4.14242 17.4266 4.23815C17.3858 4.28509 17.3358 4.3233 17.2798 4.35045C17.2239 4.37761 17.163 4.39316 17.1007 4.39616C17.0386 4.39917 16.9765 4.38958 16.9181 4.36795C16.8598 4.34634 16.8064 4.31313 16.7612 4.27035C16.3922 3.92287 15.8811 3.7337 15.4303 3.77529C15.274 3.78699 15.122 3.83282 14.9853 3.90953C14.8486 3.98626 14.7302 4.09202 14.6387 4.21937C14.602 4.26927 14.5556 4.31132 14.5023 4.34302C14.449 4.37472 14.39 4.39544 14.3287 4.40394C14.2673 4.41244 14.2047 4.40856 14.1449 4.39253C14.0851 4.3765 14.029 4.34864 13.98 4.3106C13.8798 4.23098 13.8144 4.11555 13.7976 3.98866C13.7809 3.86176 13.814 3.73331 13.8901 3.6304C14.0592 3.39661 14.2768 3.20217 14.5281 3.06044C14.7793 2.91871 15.0583 2.83305 15.3458 2.80933ZM5.06233 3.55393C5.55976 3.08086 6.21666 2.81177 6.90302 2.79994C7.22727 2.79291 7.54839 2.86482 7.83866 3.0095C8.12895 3.15417 8.37969 3.36725 8.5693 3.6304C8.64524 3.73326 8.67843 3.86152 8.66193 3.98831C8.64541 4.11511 8.58049 4.2306 8.48076 4.3106C8.43171 4.34867 8.37555 4.37656 8.31557 4.39261C8.25559 4.40865 8.19301 4.41254 8.1315 4.40404C8.07 4.39555 8.0108 4.37483 7.95743 4.3431C7.90405 4.31139 7.85755 4.26931 7.82068 4.21937C7.72913 4.09207 7.61083 3.98637 7.47409 3.90965C7.33735 3.83294 7.18547 3.78708 7.02913 3.77529C6.57969 3.7337 6.0672 3.92287 5.69825 4.27035C5.65305 4.31313 5.59967 4.34634 5.54131 4.36795C5.48295 4.38958 5.42082 4.39917 5.35866 4.39616C5.29651 4.39316 5.23558 4.37761 5.17958 4.35045C5.12359 4.3233 5.07366 4.28509 5.03281 4.23815C4.94829 4.14242 4.90414 4.01767 4.90964 3.89008C4.91515 3.76251 4.96988 3.64202 5.06233 3.55393Z" fill="url(#paint3_linear_26_72)"/>
</g>
<defs>
<filter id="filter0_i_26_72" x="5.19217" y="5.90063" width="12.0745" height="4.02484" filterUnits="userSpaceOnUse" color-interpolation-filters="sRGB">
<feFlood flood-opacity="0" result="BackgroundImageFix"/>
<feBlend mode="normal" in="SourceGraphic" in2="BackgroundImageFix" result="shape"/>
<feColorMatrix in="SourceAlpha" type="matrix" values="0 0 0 0 0 0 0 0 0 0 0 0 0 0 0 0 0 0 127 0" result="hardAlpha"/>
<feOffset/>
<feGaussianBlur stdDeviation="0.670807"/>
<feComposite in2="hardAlpha" operator="arithmetic" k2="-1" k3="1"/>
<feColorMatrix type="matrix" values="0 0 0 0 0.0980392 0 0 0 0 0.101961 0 0 0 0 0.2 0 0 0 0.819684 0"/>
<feBlend mode="normal" in2="shape" result="effect1_innerShadow_26_72"/>
</filter>
<filter id="filter1_d_26_72" x="0.88434" y="0.116243" width="20.6907" height="9.65864" filterUnits="userSpaceOnUse" color-interpolation-filters="sRGB">
<feFlood flood-opacity="0" result="BackgroundImageFix"/>
<feColorMatrix in="SourceAlpha" type="matrix" values="0 0 0 0 0 0 0 0 0 0 0 0 0 0 0 0 0 0 127 0" result="hardAlpha"/>
<feOffset dy="1.34161"/>
<feGaussianBlur stdDeviation="2.01242"/>
<feColorMatrix type="matrix" values="0 0 0 0 0.803922 0 0 0 0 0.388235 0 0 0 0 0.00392157 0 0 0 0.145679 0"/>
<feBlend mode="normal" in2="BackgroundImageFix" result="effect1_dropShadow_26_72"/>
<feBlend mode="normal" in="SourceGraphic" in2="effect1_dropShadow_26_72" result="shape"/>
</filter>
<linearGradient id="paint0_linear_26_72" x1="11.2294" y1="2.73443" x2="11.2294" y2="22" gradientUnits="userSpaceOnUse">
<stop stop-color="#FEEA70"/>
<stop offset="1" stop-color="#F69B30"/>
</linearGradient>
<linearGradient id="paint1_linear_26_72" x1="11.2294" y1="11.2671" x2="11.2294" y2="19.3168" gradientUnits="userSpaceOnUse">
<stop stop-color="#472315"/>
<stop offset="1" stop-color="#8B3A0E"/>
</linearGradient>
<linearGradient id="paint2_linear_26_72" x1="11.2294" y1="5.90063" x2="11.2294" y2="9.92547" gradientUnits="userSpaceOnUse">
<stop stop-color="#191A33"/>
<stop offset="0.872" stop-color="#3B426A"/>
</linearGradient>
<linearGradient id="paint3_linear_26_72" x1="11.2294" y1="2.79883" x2="11.2294" y2="4.40876" gradientUnits="userSpaceOnUse">
<stop stop-color="#E78E0D"/>
<stop offset="1" stop-color="#CB6000"/>
</linearGradient>
<clipPath id="clip0_26_72">
<rect width="21.4658" height="21.4658" fill="white" transform="translate(0.496521 0.53418)"/>
</clipPath>
</defs>
</svg>
